<svg width="24" height="24" viewBox="0 0 24 24" fill="none" xmlns="http://www.w3.org/2000/svg">
<path fill-rule="evenodd" clip-rule="evenodd" d="M12 2L0 24H24L12 2ZM12 5.66667L3 22.1667H21L12 5.66667Z" fill="#DA4848"/>
<path d="M12.9353 10.3929L12.7411 17.2165H11.2478L11.0536 10.3929H12.9353ZM11 19.3192C11 19.0558 11.0893 18.8348 11.2679 18.6562C11.4509 18.4732 11.6964 18.3817 12.0045 18.3817C12.3125 18.3817 12.5558 18.4732 12.7344 18.6562C12.9174 18.8348 13.0089 19.0558 13.0089 19.3192C13.0089 19.5781 12.9174 19.7969 12.7344 19.9754C12.5558 20.154 12.3125 20.2433 12.0045 20.2433C11.6964 20.2433 11.4509 20.154 11.2679 19.9754C11.0893 19.7969 11 19.5781 11 19.3192Z" fill="#DA4848"/>
</svg>
